HIERARCHY
ROOT SpineBase
{
  OFFSET 0.000000 0.000000 0.000000
  CHANNELS 6 Xposition Yposition Zposition Zrotation Xrotation Yrotation
  JOINT SpineMid
  {
    OFFSET 0.000000 33.187436 0.000000
    CHANNELS 3 Zrotation Xrotation Yrotation
    JOINT SpineShoulder
    {
      OFFSET 0.026648 24.862347 -0.894977
      CHANNELS 3 Zrotation Xrotation Yrotation
      JOINT Neck
      {
        OFFSET 0.040746 8.293149 -0.639633
        CHANNELS 3 Zrotation Xrotation Yrotation
        JOINT Head
        {
          OFFSET -0.028687 11.502744 2.396499
          CHANNELS 3 Zrotation Xrotation Yrotation
          End Site
          {
            OFFSET 0 0 0
          }
        }
      }
      JOINT ShoulderLeft
      {
        OFFSET -13.987352 -4.014563 -0.041308
        CHANNELS 3 Zrotation Xrotation Yrotation
        JOINT ElbowLeft
        {
          OFFSET -5.810568 -20.872375 8.978582
          CHANNELS 3 Zrotation Xrotation Yrotation
          JOINT WristLeft
          {
            OFFSET -1.549925 -18.512555 7.510299
            CHANNELS 3 Zrotation Xrotation Yrotation
            JOINT HandLeft
            {
              OFFSET -0.255487 -7.759640 2.529609
              CHANNELS 3 Zrotation Xrotation Yrotation
              JOINT HandTipLeft
              {
                OFFSET 0.439239 -1.638496 0.191461
                CHANNELS 3 Zrotation Xrotation Yrotation
                End Site
                {
                  OFFSET 0 0 0
                }
              }
              JOINT ThumbLeft
              {
                OFFSET 0.477981 0.961233 -2.050198
                CHANNELS 3 Zrotation Xrotation Yrotation
                End Site
                {
                  OFFSET 0 0 0
                }
              }
            }
          }
        }
      }
      JOINT ShoulderRight
      {
        OFFSET 11.638807 -6.216317 -10.631905
        CHANNELS 3 Zrotation Xrotation Yrotation
        JOINT ElbowRight
        {
          OFFSET 6.221860 -24.818385 1.372303
          CHANNELS 3 Zrotation Xrotation Yrotation
          JOINT WristRight
          {
            OFFSET 5.182029 -23.254485 8.006994
            CHANNELS 3 Zrotation Xrotation Yrotation
            JOINT HandRight
            {
              OFFSET -0.647963 -6.279604 2.582095
              CHANNELS 3 Zrotation Xrotation Yrotation
              JOINT HandTipRight
              {
                OFFSET -0.244398 -7.921682 0.541641
                CHANNELS 3 Zrotation Xrotation Yrotation
                End Site
                {
                  OFFSET 0 0 0
                }
              }
              JOINT ThumbRight
              {
                OFFSET 2.103410 1.103443 -3.260729
                CHANNELS 3 Zrotation Xrotation Yrotation
                End Site
                {
                  OFFSET 0 0 0
                }
              }
            }
          }
        }
      }
    }
  }
  JOINT HipLeft
  {
    OFFSET -5.212006 1.038290 -0.977998
    CHANNELS 3 Zrotation Xrotation Yrotation
    JOINT KneeLeft
    {
      OFFSET -7.769744 -39.946004 4.927655
      CHANNELS 3 Zrotation Xrotation Yrotation
      JOINT AnkleLeft
      {
        OFFSET -1.789635 -31.855915 1.552048
        CHANNELS 3 Zrotation Xrotation Yrotation
        JOINT FootLeft
        {
          OFFSET -5.047150 -3.233403 -7.863502
          CHANNELS 3 Zrotation Xrotation Yrotation
          End Site
          {
            OFFSET 0 0 0
          }
        }
      }
    }
  }
  JOINT HipRight
  {
    OFFSET 5.998133 2.381532 -5.239154
    CHANNELS 3 Zrotation Xrotation Yrotation
    JOINT KneeRight
    {
      OFFSET 2.398266 -36.683093 -0.532795
      CHANNELS 3 Zrotation Xrotation Yrotation
      JOINT AnkleRight
      {
        OFFSET 0.108782 -34.602661 -1.216867
        CHANNELS 3 Zrotation Xrotation Yrotation
        JOINT FootRight
        {
          OFFSET -3.706488 -2.655806 -11.990874
          CHANNELS 3 Zrotation Xrotation Yrotation
          End Site
          {
            OFFSET 0 0 0
          }
        }
      }
    }
  }
}
MOTION
Frames: 6
Frame Time: 0.033333
-34.075868 75.009846 262.419537 0.073516 -0.172411 19.982717 -0.010171 0.187154 -19.982589 -0.000000 0.000000 0.000000 -0.000000 0.000000 0.000000 0.000000 0.000000 0.000000 0.114243 1.931567 -0.494272 -0.097634 -1.932477 0.490700 -0.000000 0.000000 0.000000 -0.302263 -1.292903 -0.385102 0.000000 0.000000 0.000000 0.000000 0.000000 0.000000 0.984585 -1.777689 -0.374846 -2.913500 2.056174 -0.125317 9.948529 8.491877 2.545407 -15.435988 -12.637641 -4.704877 0.000000 0.000000 0.000000 0.000000 0.000000 0.000000 0.860436 0.909072 -20.110514 0.802425 -3.065631 0.347188 -5.889188 17.156041 -8.673036 0.000000 0.000000 0.000000 -0.010171 0.187154 -19.982589 -0.000000 0.000000 0.000000 -0.000000 0.000000 0.000000 0.000000 0.000000 0.000000
-34.074312 75.055102 262.415895 0.088493 -0.169981 20.035671 -0.024902 0.190011 -20.035498 -0.000000 0.000000 0.000000 -0.000000 0.000000 0.000000 0.000000 0.000000 0.000000 0.468886 2.108735 -0.397637 -0.454552 -2.111870 0.380629 -0.000000 0.000000 0.000000 -0.244928 -0.927436 -0.279125 0.000000 0.000000 0.000000 0.000000 0.000000 0.000000 0.971479 -1.781834 -0.376782 -3.033312 1.821214 -0.222996 9.751744 10.726384 2.161706 -15.647477 -14.939391 -4.879936 0.000000 0.000000 0.000000 0.000000 0.000000 0.000000 1.020934 0.933125 -20.161738 0.537194 -3.408912 0.351938 -4.587640 14.750466 -8.353933 0.000000 0.000000 0.000000 -0.024902 0.190011 -20.035498 -0.000000 0.000000 0.000000 -0.000000 0.000000 0.000000 0.000000 0.000000 0.000000
-34.059609 75.095558 262.403983 0.118546 -0.158138 20.063027 -0.057103 0.189209 -20.062770 -0.000000 0.000000 0.000000 -0.000000 0.000000 0.000000 0.000000 0.000000 0.000000 1.222100 2.732092 -0.267678 -1.210710 -2.737156 0.209608 -0.000000 0.000000 0.000000 -0.000000 0.000000 0.000000 0.000000 0.000000 0.000000 0.000000 0.000000 0.000000 0.963468 -1.760990 -0.372322 -3.171610 1.634003 -0.315481 8.862718 12.772515 1.581281 -13.782528 -16.910851 -4.273240 0.000000 0.000000 0.000000 0.000000 0.000000 0.000000 1.114748 0.941745 -20.186405 0.207673 -3.538757 0.333686 -2.297700 11.760831 -9.443284 0.000000 0.000000 0.000000 -0.057103 0.189209 -20.062770 -0.000000 0.000000 0.000000 -0.000000 0.000000 0.000000 0.000000 0.000000 0.000000
-34.026214 75.133365 262.384575 0.167947 -0.140609 20.139337 -0.109267 0.189836 -20.138950 -0.000000 0.000000 0.000000 -0.000000 0.000000 0.000000 0.000000 0.000000 0.000000 1.599621 2.917593 -0.167469 -1.593161 -2.921123 0.086106 -0.000000 0.000000 0.000000 -0.000000 0.000000 0.000000 0.000000 0.000000 0.000000 0.000000 0.000000 0.000000 0.943691 -1.697547 -0.358401 -3.206045 1.504932 -0.367190 7.476528 13.351791 1.076646 -11.882636 -17.972591 -3.438162 0.000000 0.000000 0.000000 0.000000 0.000000 0.000000 1.135643 0.951948 -20.262428 -0.191956 -3.350471 0.288289 0.673736 8.179707 -11.616800 0.000000 0.000000 0.000000 -0.109267 0.189836 -20.138950 -0.000000 0.000000 0.000000 -0.000000 0.000000 0.000000 0.000000 0.000000 0.000000
-34.014066 75.155752 262.366074 0.192302 -0.130355 20.150329 -0.135627 0.188620 -20.149887 -0.000000 0.000000 0.000000 -0.000000 0.000000 0.000000 0.000000 0.000000 0.000000 1.802670 3.005177 -0.110297 -1.799363 -3.007158 0.015772 -0.000000 0.000000 0.000000 -0.000000 0.000000 0.000000 0.000000 0.000000 0.000000 0.000000 0.000000 0.000000 0.896210 -1.626440 -0.344544 -3.113480 1.494881 -0.357703 6.899735 12.959537 0.935118 -10.675125 -17.732083 -2.932910 0.000000 0.000000 0.000000 0.000000 0.000000 0.000000 1.163224 0.937264 -20.268116 -0.495680 -3.124898 0.246336 2.575778 5.754287 -13.019081 0.000000 0.000000 0.000000 -0.135627 0.188620 -20.149887 -0.000000 0.000000 0.000000 -0.000000 0.000000 0.000000 0.000000 0.000000 0.000000
-34.021168 75.158700 262.351767 0.196828 -0.127748 20.119723 -0.140875 0.187658 -20.119272 -0.000000 0.000000 0.000000 -0.000000 0.000000 0.000000 0.000000 0.000000 0.000000 1.752029 2.816371 -0.074653 -1.750476 -2.817336 -0.011469 -0.000000 0.000000 0.000000 -0.000000 0.000000 0.000000 0.000000 0.000000 0.000000 0.000000 0.000000 0.000000 0.875463 -1.688262 -0.360976 -3.131543 1.653799 -0.326689 6.371800 13.823763 0.619633 -9.509695 -18.088892 -2.461092 0.000000 0.000000 0.000000 0.000000 0.000000 0.000000 1.161258 0.901524 -20.228927 -0.702366 -2.918167 0.211491 3.756558 4.345994 -14.015375 0.000000 0.000000 0.000000 -0.140875 0.187658 -20.119272 -0.000000 0.000000 0.000000 -0.000000 0.000000 0.000000 0.000000 0.000000 0.000000
